<?xml version="1.0" encoding="UTF-8"?>
<svg width="32px" height="32px" viewBox="0 0 32 32" version="1.1" xmlns="http://www.w3.org/2000/svg">
    <g stroke="none" stroke-width="1" fill="none" fill-rule="evenodd">
        <path d="M16,0 C24.8365556,0 32,7.16344444 32,16 C32,24.8365556 24.8365556,32 16,32 C7.16344444,32 0,24.8365556 0,16 C0,7.16344444 7.16344444,0 16,0 Z" fill="#635BFF"/>
        <path d="M8,11 L24,11 C25.1045695,11 26,11.8954305 26,13 L26,19 C26,20.1045695 25.1045695,21 24,21 L8,21 C6.8954305,21 6,20.1045695 6,19 L6,13 C6,11.8954305 6.8954305,11 8,11 Z M7,14 L25,14 L25,15 L7,15 L7,14 Z M9,17 L13,17 L13,18 L9,18 L9,17 Z M15,17 L19,17 L19,18 L15,18 L15,17 Z" fill="#FFFFFF"/>
    </g>
</svg>
