<?xml version="1.0" encoding="UTF-8"?>
<svg width="32px" height="32px" viewBox="0 0 32 32" version="1.1" xmlns="http://www.w3.org/2000/svg">
    <g stroke="none" stroke-width="1" fill="none" fill-rule="evenodd">
        <path d="M27.2916 4.89062L17.593 12.0906L19.4089 7.65L27.2916 4.89062Z" fill="#E17726"/>
        <path d="M4.70801 4.89062L14.3277 12.1531L12.5908 7.65L4.70801 4.89062Z" fill="#E27625"/>
        <path d="M23.8931 21.4813L21.2744 25.6781L26.8411 27.2281L28.4223 21.5719L23.8931 21.4813Z" fill="#E27625"/>
        <path d="M3.59375 21.5719L5.16563 27.2281L10.7323 25.6781L8.12292 21.4813L3.59375 21.5719Z" fill="#E27625"/>
        <path d="M10.4483 14.8219L8.89551 17.3531L14.4045 17.6438L14.2014 11.7188L10.4483 14.8219Z" fill="#E27625"/>
        <path d="M21.5514 14.8219L17.7358 11.6562L17.593 17.6438L23.1019 17.3531L21.5514 14.8219Z" fill="#E27625"/>
        <path d="M10.7323 25.6781L14.0764 24.0375L11.2014 21.6188L10.7323 25.6781Z" fill="#E27625"/>
        <path d="M17.9233 24.0375L21.2744 25.6781L20.7983 21.6188L17.9233 24.0375Z" fill="#E27625"/>
        <path d="M21.2744 25.6781L17.9233 24.0375L18.2045 26.3656L18.1764 27.1656L21.2744 25.6781Z" fill="#D5BFB2"/>
        <path d="M10.7323 25.6781L13.8303 27.1656L13.8092 26.3656L14.0764 24.0375L10.7323 25.6781Z" fill="#D5BFB2"/>
        <path d="M13.8867 20.2125L11.1367 19.3219L13.0867 18.4125L13.8867 20.2125Z" fill="#233447"/>
        <path d="M18.1133 20.2125L18.9133 18.4125L20.8703 19.3219L18.1133 20.2125Z" fill="#233447"/>
        <path d="M10.7323 25.6781L11.2225 21.4813L8.12292 21.5719L10.7323 25.6781Z" fill="#CC6228"/>
        <path d="M20.7773 21.4813L21.2744 25.6781L23.8931 21.5719L20.7773 21.4813Z" fill="#CC6228"/>
        <path d="M23.1019 17.3531L17.593 17.6438L18.1133 20.2125L18.9133 18.4125L20.8703 19.3219L23.1019 17.3531Z" fill="#CC6228"/>
        <path d="M11.1367 19.3219L13.0867 18.4125L13.8867 20.2125L14.4045 17.6438L8.89551 17.3531L11.1367 19.3219Z" fill="#CC6228"/>
        <path d="M8.89551 17.3531L11.2014 21.6188L11.1367 19.3219L8.89551 17.3531Z" fill="#E27525"/>
        <path d="M20.8703 19.3219L20.7983 21.6188L23.1019 17.3531L20.8703 19.3219Z" fill="#E27525"/>
        <path d="M14.4045 17.6438L13.8867 20.2125L14.5367 23.3156L14.7005 18.7031L14.4045 17.6438Z" fill="#E27525"/>
        <path d="M17.593 17.6438L17.3042 18.6938L17.4539 23.3156L18.1133 20.2125L17.593 17.6438Z" fill="#E27525"/>
        <path d="M18.1133 20.2125L17.4539 23.3156L17.9233 24.0375L20.7983 21.6188L20.8703 19.3219L18.1133 20.2125Z" fill="#F5841F"/>
        <path d="M11.1367 19.3219L11.2014 21.6188L14.0764 24.0375L14.5367 23.3156L13.8867 20.2125L11.1367 19.3219Z" fill="#F5841F"/>
        <path d="M18.1764 27.1656L18.2045 26.3656L17.9444 26.1469H14.0553L13.8092 26.3656L13.8303 27.1656L10.7323 25.6781L11.8553 26.5875L13.9942 28.1094H18.0055L20.1514 26.5875L21.2744 25.6781L18.1764 27.1656Z" fill="#C0AC9D"/>
        <path d="M17.9233 24.0375L17.4539 23.3156H14.5367L14.0764 24.0375L13.8092 26.3656L14.0553 26.1469H17.9444L18.2045 26.3656L17.9233 24.0375Z" fill="#161616"/>
        <path d="M27.9483 12.0906L28.7483 8.05312L27.2916 4.89062L17.9233 11.7188L21.5514 14.8219L26.6942 16.4156L27.8031 14.9875L27.2916 14.6219L28.0494 13.8781L27.4242 13.4031L28.1819 12.7875L27.9483 12.0906Z" fill="#763E1A"/>
        <path d="M3.25137 8.05312L4.05137 12.0906L3.80574 12.7875L4.57074 13.4031L3.94574 13.8781L4.70801 14.6219L4.19574 14.9875L5.30574 16.4156L10.4483 14.8219L14.0764 11.7188L4.70801 4.89062L3.25137 8.05312Z" fill="#763E1A"/>
        <path d="M26.6942 16.4156L21.5514 14.8219L23.1019 17.3531L20.7983 21.6188L23.8931 21.5719H28.4223L26.6942 16.4156Z" fill="#F5841F"/>
        <path d="M10.4483 14.8219L5.30574 16.4156L3.59375 21.5719H8.12292L11.2014 21.6188L8.89551 17.3531L10.4483 14.8219Z" fill="#F5841F"/>
        <path d="M17.593 17.6438L17.9233 11.7188L19.4089 7.65H12.5908L14.0764 11.7188L14.4045 17.6438L14.5297 18.7125L14.5367 23.3156H17.4539L17.4678 18.7125L17.593 17.6438Z" fill="#F5841F"/>
    </g>
</svg>
