<?xml version="1.0" encoding="UTF-8"?>
<svg width="32px" height="32px" viewBox="0 0 32 32" version="1.1" xmlns="http://www.w3.org/2000/svg">
    <g stroke="none" stroke-width="1" fill="none" fill-rule="evenodd">
        <path d="M16,0 C24.8365556,0 32,7.16344444 32,16 C32,24.8365556 24.8365556,32 16,32 C7.16344444,32 0,24.8365556 0,16 C0,7.16344444 7.16344444,0 16,0 Z" fill="#003087"/>
        <path d="M23.0095238,10.6666667 C23.0095238,12.8 21.2571429,14.4761905 19.047619,14.4761905 L16.8380952,14.4761905 L15.8095238,20.5714286 L13.3333333,20.5714286 L13.1428571,21.7142857 C13.047619,22.2857143 13.5238095,22.7619048 14.0952381,22.7619048 L17.4095238,22.7619048 L18.4380952,16.6666667 L20.6476191,16.6666667 C22.8571429,16.6666667 24.6095238,14.9904762 24.6095238,12.8571429 L23.0095238,10.6666667 Z" fill="#FFFFFF"/>
        <path d="M12.1904762,9.52380952 L16.8380952,9.52380952 C18.247619,9.52380952 19.4666667,10.0952381 20.2666667,11.047619 C19.8857143,13.7142857 17.5047619,15.7142857 14.7619048,15.7142857 L12.5523809,15.7142857 L11.5238095,21.8095238 L9.04761905,21.8095238 L7.39047619,9.52380952 L12.1904762,9.52380952 Z" fill="#FFFFFF"/>
    </g>
</svg>
